<?xml version="1.0" encoding="UTF-8"?>
<svg version="1.1" xmlns="http://www.w3.org/2000/svg" width="236" height="120">
<path d="M0 0 C77.88 0 155.76 0 236 0 C236 39.6 236 79.2 236 120 C158.12 120 80.24 120 0 120 C0 80.4 0 40.8 0 0 Z " fill="#0F1016" transform="translate(0,0)"/>
<path d="M0 0 C1.39456452 0.00667256 2.78911118 0.01863093 4.18359375 0.03515625 C4.89451172 0.03966797 5.60542969 0.04417969 6.33789062 0.04882812 C8.09899388 0.06064761 9.86005411 0.07858362 11.62109375 0.09765625 C16.20449044 11.49781384 20.46591697 23.01494237 24.6600647 34.56286621 C25.2594785 36.21214484 25.86053512 37.86082733 26.46322632 39.50891113 C27.32159041 41.85834142 28.17341637 44.21004036 29.0234375 46.5625 C29.41671234 47.63494209 29.41671234 47.63494209 29.81793213 48.72904968 C30.86905713 51.65835644 31.62109375 53.95946962 31.62109375 57.09765625 C27.66109375 57.09765625 23.70109375 57.09765625 19.62109375 57.09765625 C15.62109375 47.34765625 15.62109375 47.34765625 15.62109375 45.09765625 C8.03109375 45.09765625 0.44109375 45.09765625 -7.37890625 45.09765625 C-8.36890625 49.05765625 -9.35890625 53.01765625 -10.37890625 57.09765625 C-14.66890625 57.09765625 -18.95890625 57.09765625 -23.37890625 57.09765625 C-22.67964987 52.90211797 -22.03082597 49.72875832 -20.62890625 45.8425293 C-20.27183594 44.84517258 -19.91476563 43.84781586 -19.546875 42.82023621 C-19.16144531 41.76065201 -18.77601562 40.70106781 -18.37890625 39.609375 C-17.98316406 38.51043411 -17.58742188 37.41149323 -17.1796875 36.2792511 C-16.34489136 33.96450023 -15.50759717 31.65064893 -14.66796875 29.33764648 C-13.37798543 25.78261859 -12.09659618 22.22458039 -10.81640625 18.66601562 C-10.00440992 16.41778678 -9.19192694 14.16973362 -8.37890625 11.921875 C-7.99347656 10.85216965 -7.60804687 9.78246429 -7.2109375 8.68034363 C-6.85386719 7.69874771 -6.49679688 6.71715179 -6.12890625 5.70581055 C-5.814375 4.83788376 -5.49984375 3.96995697 -5.17578125 3.07572937 C-3.85835841 -0.19449333 -3.82008092 0.11040696 0 0 Z " fill="#4C8AD9" transform="translate(67.37890625,30.90234375)"/>
<path d="M0 0 C4.55543729 2.90357827 8.41205029 7.33351789 9.90234375 12.57421875 C10.1875 14.5 10.1875 14.5 10.3125 17.5 C6.0225 17.5 1.7325 17.5 -2.6875 17.5 C-3.14125 16.365625 -3.595 15.23125 -4.0625 14.0625 C-5.25845806 10.45278308 -5.25845806 10.45278308 -7.6875 9.5 C-9.33005791 9.37885079 -10.97802478 9.32459233 -12.625 9.3125 C-13.93791016 9.29123047 -13.93791016 9.29123047 -15.27734375 9.26953125 C-17.94994335 9.33336651 -17.94994335 9.33336651 -20.6875 11.5 C-20.93765873 15.08357241 -20.93765873 15.08357241 -20.6875 18.5 C-15.33395821 20.50503371 -10.02101974 22.443476 -4.5 23.9375 C1.58498053 25.73973946 6.62713486 28.07728761 10.3125 33.375 C12.00564673 38.66608352 11.92272608 42.65305139 9.625 47.6875 C6.74868242 52.92361335 2.94946524 55.65999475 -2.6875 57.5 C-11.25482102 58.28381873 -20.43222257 58.79062874 -27.6875 53.5 C-31.40838744 50.09389479 -34.3524208 46.43979303 -35.6875 41.5 C-35.6875 40.18 -35.6875 38.86 -35.6875 37.5 C-31.3975 37.5 -27.1075 37.5 -22.6875 37.5 C-21.7109375 40.13671875 -21.7109375 40.13671875 -20.734375 42.7734375 C-19.3475419 45.06067717 -18.19324806 45.60413963 -15.6875 46.5 C-13.20013746 46.81423015 -13.20013746 46.81423015 -10.625 46.75 C-9.76777344 46.75515625 -8.91054687 46.7603125 -8.02734375 46.765625 C-5.41697202 46.64992488 -5.41697202 46.64992488 -2.6875 44.5 C-2.02073122 41.04250051 -2.02073122 41.04250051 -2.6875 37.5 C-7.23984676 33.93266394 -12.86852371 32.90719298 -18.36132812 31.48242188 C-24.67931819 29.7470806 -30.13318242 27.29914974 -33.6875 21.5 C-34.93083968 17.76998095 -35.21043341 14.37412635 -34.6875 10.5 C-28.39182489 -1.84920888 -12.49121568 -5.53809758 0 0 Z " fill="#50AC95" transform="translate(192.6875,31.5)"/>
<path d="M0 0 C4.29 0 8.58 0 13 0 C13.33 7.59 13.66 15.18 14 23 C15.299375 21.411875 16.59875 19.82375 17.9375 18.1875 C18.75089844 17.19363281 19.56429687 16.19976562 20.40234375 15.17578125 C22.12519011 13.07022478 23.84643466 10.96337409 25.56640625 8.85546875 C26.77103516 7.38013672 26.77103516 7.38013672 28 5.875 C28.7425 4.96492188 29.485 4.05484375 30.25 3.1171875 C31.13277792 2.04918385 32.02022231 0.97977769 33 0 C35.35313555 -0.07271741 37.70833668 -0.08370868 40.0625 -0.0625 C41.35285156 -0.05347656 42.64320313 -0.04445313 43.97265625 -0.03515625 C44.97167969 -0.02355469 45.97070312 -0.01195313 47 0 C43.99775032 4.73125611 40.62730689 8.91454552 36.9375 13.125 C35.38916804 14.90152705 33.84395348 16.67960783 32.31591797 18.47363281 C31.24420616 19.71673898 30.12982866 20.9229606 29.00390625 22.1171875 C28.67261719 22.73851563 28.34132812 23.35984375 28 24 C29.15859355 27.62734749 30.87693879 30.49947195 33.08203125 33.58203125 C33.98598633 34.85723633 33.98598633 34.85723633 34.90820312 36.15820312 C35.53662109 37.03412109 36.16503906 37.91003906 36.8125 38.8125 C41.06672682 44.773752 45.18637908 50.74566168 49 57 C44.08675448 57.89203017 39.88195314 58.17106041 35 57 C31.04921886 53.81396575 28.60020047 49.23903421 26.12451172 44.88232422 C24.92948651 42.88196721 23.60669008 41.03387281 22.22265625 39.16015625 C20 36 20 36 20 34 C15.65302447 36.71926158 15.65302447 36.71926158 13.41113281 41.10009766 C13.18670009 43.51858869 13.11733238 45.8837814 13.125 48.3125 C13.104375 49.14845703 13.08375 49.98441406 13.0625 50.84570312 C13.01561995 52.8967055 13.00426071 54.94846635 13 57 C8.71 57 4.42 57 0 57 C0 38.19 0 19.38 0 0 Z " fill="#4D9DBA" transform="translate(106,31)"/>
<path d="M0 0 C2.12261076 2.12261076 2.58711498 3.26899902 3.5078125 6.0625 C3.77207031 6.85914063 4.03632812 7.65578125 4.30859375 8.4765625 C4.57800781 9.30929688 4.84742187 10.14203125 5.125 11 C5.40214844 11.83273438 5.67929688 12.66546875 5.96484375 13.5234375 C8 19.71913485 8 19.71913485 8 22 C3.05 22 -1.9 22 -7 22 C-5.56006454 14.27670981 -2.94467554 7.2717751 0 0 Z " fill="#11141B" transform="translate(71,44)"/>
</svg>
